<svg xmlns="http://www.w3.org/2000/svg" width="94.92" height="43.841" viewBox="0 0 94.92 43.841">
  <g id="Group_5" data-name="Group 5" transform="translate(-755.08 -608.08)">
    <path id="Path_3" data-name="Path 3" d="M15,0A15,15,0,1,1,0,15" transform="translate(798.213 630) rotate(135)" fill="none" stroke="#e3a72f" stroke-linecap="round" stroke-width="1"/>
    <text id="ORDVERTER.IO" transform="translate(760 623)" fill="#e3a72f" font-size="8" font-family="Blanka-Regular, Blanka" letter-spacing="0.056em"><tspan x="16.152" y="10">ordverter.io</tspan></text>
    <path id="Path_2" data-name="Path 2" d="M11,0A11,11,0,1,1,0,11" transform="translate(792.556 630) rotate(135)" fill="none" stroke="#e3a72f" stroke-linecap="round" stroke-width="1"/>
    <path id="Path_1" data-name="Path 1" d="M7,0A7,7,0,1,1,0,7" transform="translate(786.899 630) rotate(135)" fill="none" stroke="#e3a72f" stroke-linecap="round" stroke-width="1"/>
    <g id="Ellipse_12" data-name="Ellipse 12" transform="translate(781 624)" fill="none" stroke="#e3a72f" stroke-width="1">
      <circle cx="1" cy="1" r="1" stroke="none"/>
      <circle cx="1" cy="1" r="0.5" fill="none"/>
    </g>
    <g id="Ellipse_13" data-name="Ellipse 13" transform="translate(787 639)" fill="none" stroke="#e3a72f" stroke-width="1">
      <circle cx="1" cy="1" r="1" stroke="none"/>
      <circle cx="1" cy="1" r="0.5" fill="none"/>
    </g>
    <g id="Ellipse_16" data-name="Ellipse 16" transform="translate(761 628)" fill="none" stroke="#e3a72f" stroke-width="1">
      <circle cx="1" cy="1" r="1" stroke="none"/>
      <circle cx="1" cy="1" r="0.5" fill="none"/>
    </g>
    <g id="Ellipse_15" data-name="Ellipse 15" transform="translate(767 635)" fill="none" stroke="#e3a72f" stroke-width="1">
      <circle cx="1" cy="1" r="1" stroke="none"/>
      <circle cx="1" cy="1" r="0.5" fill="none"/>
    </g>
    <g id="Ellipse_14" data-name="Ellipse 14" transform="translate(774 618)" fill="none" stroke="#e3a72f" stroke-width="1">
      <circle cx="1" cy="1" r="1" stroke="none"/>
      <circle cx="1" cy="1" r="0.5" fill="none"/>
    </g>
    <g id="Ellipse_17" data-name="Ellipse 17" transform="translate(787 619)" fill="none" stroke="#e3a72f" stroke-width="1">
      <circle cx="1" cy="1" r="1" stroke="none"/>
      <circle cx="1" cy="1" r="0.5" fill="none"/>
    </g>
  </g>
</svg>
